<mxfile host="65bd71144e">
    <diagram id="wLYVdVxrgqWj_LJIeQVb" name="ページ1">
        <mxGraphModel dx="847" dy="691" grid="1" gridSize="10" guides="0" tooltips="1" connect="0" arrows="0" fold="1" page="1" pageScale="1" pageWidth="827" pageHeight="1169" background="#ffffff" math="0" shadow="0">
            <root>
                <mxCell id="0"/>
                <mxCell id="1" parent="0"/>
                <mxCell id="2" value="&lt;font style=&quot;font-size: 16px;&quot;&gt;&lt;b&gt;ドメインモデル図とは&lt;/b&gt;&lt;/font&gt;&lt;div&gt;&lt;br data-end=&quot;14&quot; data-start=&quot;11&quot;&gt;&lt;br/&gt;&lt;strong data-end=&quot;63&quot; data-start=&quot;14&quot;&gt;システムの「業務的な概念（ドメイン）」を整理し、クラスやエンティティの関係を図で表したもの&lt;/strong&gt;&lt;br&gt;&lt;div&gt;&lt;br&gt;&lt;/div&gt;&lt;/div&gt;" style="text;html=1;align=left;verticalAlign=middle;resizable=0;points=[];autosize=1;strokeColor=none;fillColor=none;labelBorderColor=none;" vertex="1" parent="1">
                    <mxGeometry x="40" y="25" width="550" height="90" as="geometry"/>
                </mxCell>
                <mxCell id="7" style="edgeStyle=none;html=1;entryX=0;entryY=0.5;entryDx=0;entryDy=0;strokeColor=#FF0000;endArrow=none;endFill=0;" edge="1" parent="1" source="3" target="4">
                    <mxGeometry relative="1" as="geometry"/>
                </mxCell>
                <mxCell id="10" value="１" style="edgeLabel;html=1;align=center;verticalAlign=middle;resizable=0;points=[];fontFamily=Helvetica;fontSize=11;fontColor=default;labelBackgroundColor=default;" vertex="1" connectable="0" parent="7">
                    <mxGeometry x="-0.7725" y="1" relative="1" as="geometry">
                        <mxPoint as="offset"/>
                    </mxGeometry>
                </mxCell>
                <mxCell id="11" value="0..n" style="edgeLabel;html=1;align=center;verticalAlign=middle;resizable=0;points=[];fontFamily=Helvetica;fontSize=11;fontColor=default;labelBackgroundColor=default;" vertex="1" connectable="0" parent="7">
                    <mxGeometry x="0.772" y="1" relative="1" as="geometry">
                        <mxPoint as="offset"/>
                    </mxGeometry>
                </mxCell>
                <mxCell id="9" style="edgeStyle=none;shape=connector;rounded=1;html=1;entryX=0;entryY=0.5;entryDx=0;entryDy=0;strokeColor=#FF0000;align=center;verticalAlign=middle;fontFamily=Helvetica;fontSize=11;fontColor=default;labelBackgroundColor=default;endArrow=none;endFill=0;" edge="1" parent="1" source="3" target="5">
                    <mxGeometry relative="1" as="geometry"/>
                </mxCell>
                <mxCell id="12" value="1" style="edgeLabel;html=1;align=center;verticalAlign=middle;resizable=0;points=[];fontFamily=Helvetica;fontSize=11;fontColor=default;labelBackgroundColor=default;" vertex="1" connectable="0" parent="9">
                    <mxGeometry x="-0.8227" relative="1" as="geometry">
                        <mxPoint as="offset"/>
                    </mxGeometry>
                </mxCell>
                <mxCell id="13" value="0..n" style="edgeLabel;html=1;align=center;verticalAlign=middle;resizable=0;points=[];fontFamily=Helvetica;fontSize=11;fontColor=default;labelBackgroundColor=default;" vertex="1" connectable="0" parent="9">
                    <mxGeometry x="0.8145" y="-1" relative="1" as="geometry">
                        <mxPoint as="offset"/>
                    </mxGeometry>
                </mxCell>
                <mxCell id="3" value="&lt;div style=&quot;&quot;&gt;&lt;u style=&quot;background-color: transparent;&quot;&gt;&lt;b&gt;ユーザー&lt;/b&gt;&lt;/u&gt;&lt;/div&gt;&lt;div&gt;&lt;b&gt;&lt;u&gt;&lt;br&gt;&lt;/u&gt;&lt;/b&gt;&lt;/div&gt;&lt;div style=&quot;text-align: left;&quot;&gt;・ユーザー名&lt;/div&gt;&lt;div style=&quot;text-align: left;&quot;&gt;・パスワード&lt;br&gt;・Email&lt;/div&gt;&lt;div style=&quot;text-align: left;&quot;&gt;・写真&lt;br&gt;&lt;/div&gt;&lt;div style=&quot;text-align: left;&quot;&gt;・ユーザーレベル(権限)&lt;/div&gt;&lt;div&gt;&lt;div&gt;&lt;u&gt;&lt;b&gt;&lt;br&gt;&lt;/b&gt;&lt;/u&gt;&lt;/div&gt;&lt;div&gt;&lt;u&gt;&lt;b&gt;&lt;br&gt;&lt;/b&gt;&lt;/u&gt;&lt;/div&gt;&lt;/div&gt;" style="rounded=1;html=1;verticalAlign=top;align=center;fillColor=#ffe6cc;strokeColor=#d79b00;" vertex="1" parent="1">
                    <mxGeometry x="40" y="160" width="140" height="310" as="geometry"/>
                </mxCell>
                <mxCell id="14" style="edgeStyle=none;shape=connector;rounded=1;html=1;entryX=0;entryY=0.5;entryDx=0;entryDy=0;strokeColor=#FF0000;align=center;verticalAlign=middle;fontFamily=Helvetica;fontSize=11;fontColor=default;labelBackgroundColor=default;endArrow=classic;endFill=1;" edge="1" parent="1" source="4" target="6">
                    <mxGeometry relative="1" as="geometry"/>
                </mxCell>
                <mxCell id="15" value="1" style="edgeLabel;html=1;align=center;verticalAlign=middle;resizable=0;points=[];fontFamily=Helvetica;fontSize=11;fontColor=default;labelBackgroundColor=default;" vertex="1" connectable="0" parent="14">
                    <mxGeometry x="-0.5515" y="-2" relative="1" as="geometry">
                        <mxPoint as="offset"/>
                    </mxGeometry>
                </mxCell>
                <mxCell id="16" value="0..n" style="edgeLabel;html=1;align=center;verticalAlign=middle;resizable=0;points=[];fontFamily=Helvetica;fontSize=11;fontColor=default;labelBackgroundColor=default;" vertex="1" connectable="0" parent="14">
                    <mxGeometry x="0.7577" y="1" relative="1" as="geometry">
                        <mxPoint x="-9" as="offset"/>
                    </mxGeometry>
                </mxCell>
                <mxCell id="4" value="&lt;div style=&quot;&quot;&gt;&lt;b&gt;&lt;u&gt;タスク&lt;/u&gt;&lt;/b&gt;&lt;/div&gt;&lt;div&gt;&lt;b&gt;&lt;u&gt;&lt;br&gt;&lt;/u&gt;&lt;/b&gt;&lt;/div&gt;&lt;div style=&quot;text-align: left;&quot;&gt;・タスク名&lt;/div&gt;&lt;div style=&quot;text-align: left;&quot;&gt;・詳細&lt;br&gt;・ステータス(未着手、作業中、完了)&lt;br&gt;・作業開始日時&lt;br&gt;・作業終了日時&lt;/div&gt;&lt;div&gt;&lt;div&gt;&lt;u&gt;&lt;b&gt;&lt;br&gt;&lt;/b&gt;&lt;/u&gt;&lt;/div&gt;&lt;/div&gt;" style="rounded=1;whiteSpace=wrap;html=1;verticalAlign=top;align=center;fillColor=#ffe6cc;strokeColor=#d79b00;labelBackgroundColor=none;" vertex="1" parent="1">
                    <mxGeometry x="274" y="160" width="140" height="200" as="geometry"/>
                </mxCell>
                <mxCell id="5" value="&lt;div style=&quot;&quot;&gt;&lt;b&gt;&lt;u&gt;ブログ&lt;/u&gt;&lt;/b&gt;&lt;/div&gt;&lt;div&gt;&lt;b&gt;&lt;u&gt;&lt;br&gt;&lt;/u&gt;&lt;/b&gt;&lt;/div&gt;&lt;div&gt;&lt;div style=&quot;text-align: left;&quot;&gt;・写真&lt;br&gt;・ブログ名&lt;br&gt;・タグ&lt;br&gt;・カテゴリー&lt;br&gt;・詳細&lt;br&gt;・投稿日時&lt;/div&gt;&lt;/div&gt;" style="rounded=1;whiteSpace=wrap;html=1;verticalAlign=top;align=center;fillColor=#ffe6cc;strokeColor=#d79b00;textShadow=0;" vertex="1" parent="1">
                    <mxGeometry x="280" y="380" width="140" height="180" as="geometry"/>
                </mxCell>
                <mxCell id="6" value="&lt;div style=&quot;&quot;&gt;&lt;b&gt;&lt;u&gt;通知先&lt;/u&gt;&lt;/b&gt;&lt;/div&gt;&lt;div&gt;&lt;b&gt;&lt;u&gt;&lt;br&gt;&lt;/u&gt;&lt;/b&gt;&lt;/div&gt;&lt;div&gt;&lt;div style=&quot;text-align: left;&quot;&gt;・ツール&lt;br&gt;・アカウント情報&lt;/div&gt;&lt;/div&gt;" style="rounded=1;whiteSpace=wrap;html=1;verticalAlign=top;align=center;fillColor=#ffe6cc;strokeColor=#d79b00;" vertex="1" parent="1">
                    <mxGeometry x="500" y="160" width="140" height="160" as="geometry"/>
                </mxCell>
                <mxCell id="17" value="&lt;u&gt;Value Object&lt;/u&gt;&lt;div&gt;&lt;div style=&quot;text-align: left;&quot;&gt;&lt;span style=&quot;background-color: transparent;&quot;&gt;・パスワード&lt;/span&gt;&lt;/div&gt;&lt;div style=&quot;text-align: left;&quot;&gt;&lt;span style=&quot;background-color: transparent;&quot;&gt;・Email&lt;/span&gt;&lt;/div&gt;&lt;/div&gt;" style="rounded=1;whiteSpace=wrap;html=1;fontFamily=Helvetica;fontSize=11;labelBackgroundColor=none;fillColor=#f8cecc;strokeColor=#b85450;verticalAlign=top;" vertex="1" parent="1">
                    <mxGeometry x="50" y="280" width="120" height="60" as="geometry"/>
                </mxCell>
                <mxCell id="18" value="非会員でも閲覧可能" style="shape=note;whiteSpace=wrap;html=1;backgroundOutline=1;darkOpacity=0.05;fontFamily=Helvetica;fontSize=11;labelBackgroundColor=none;fillColor=#f8cecc;strokeColor=#b85450;align=left;size=21;" vertex="1" parent="1">
                    <mxGeometry x="70" y="510" width="140" height="40" as="geometry"/>
                </mxCell>
                <mxCell id="20" value="&lt;u&gt;Value Object&lt;/u&gt;&lt;div&gt;&lt;div style=&quot;text-align: left;&quot;&gt;&lt;span style=&quot;background-color: transparent;&quot;&gt;・アカウント情報&lt;/span&gt;&lt;/div&gt;&lt;/div&gt;" style="rounded=1;whiteSpace=wrap;html=1;fontFamily=Helvetica;fontSize=11;labelBackgroundColor=none;fillColor=#f8cecc;strokeColor=#b85450;verticalAlign=top;" vertex="1" parent="1">
                    <mxGeometry x="510" y="240" width="120" height="60" as="geometry"/>
                </mxCell>
                <mxCell id="22" value="" style="edgeStyle=none;shape=connector;rounded=1;strokeColor=#FF0000;align=center;verticalAlign=middle;fontFamily=Helvetica;fontSize=11;fontColor=default;labelBackgroundColor=default;endArrow=none;endFill=0;labelBorderColor=default;" edge="1" parent="1" source="21" target="4">
                    <mxGeometry relative="1" as="geometry"/>
                </mxCell>
                <mxCell id="21" value="CSV 入出力可能(タスク履歴)" style="shape=note;whiteSpace=wrap;html=1;backgroundOutline=1;darkOpacity=0.05;fontFamily=Helvetica;fontSize=11;labelBackgroundColor=none;fillColor=#f8cecc;strokeColor=#b85450;align=left;size=21;" vertex="1" parent="1">
                    <mxGeometry x="150" y="110" width="170" height="40" as="geometry"/>
                </mxCell>
                <mxCell id="23" value="&lt;u&gt;Value Object&lt;/u&gt;&lt;div&gt;&lt;div style=&quot;text-align: left;&quot;&gt;&lt;span style=&quot;background-color: transparent;&quot;&gt;・&lt;/span&gt;&lt;span style=&quot;background-color: transparent;&quot;&gt;lmage&lt;/span&gt;&lt;/div&gt;&lt;/div&gt;" style="rounded=1;whiteSpace=wrap;html=1;fontFamily=Helvetica;fontSize=11;labelBackgroundColor=none;fillColor=#f8cecc;strokeColor=#b85450;verticalAlign=top;" vertex="1" parent="1">
                    <mxGeometry x="50" y="350" width="120" height="40" as="geometry"/>
                </mxCell>
                <mxCell id="26" value="トリガーは&lt;br&gt;タスク追加時/編集時" style="shape=note;whiteSpace=wrap;html=1;backgroundOutline=1;darkOpacity=0.05;fontFamily=Helvetica;fontSize=11;labelBackgroundColor=none;fillColor=#f8cecc;strokeColor=#b85450;align=left;size=21;" vertex="1" parent="1">
                    <mxGeometry x="390" y="100" width="140" height="40" as="geometry"/>
                </mxCell>
                <mxCell id="27" style="edgeStyle=none;shape=connector;rounded=1;html=1;entryX=-0.007;entryY=0.155;entryDx=0;entryDy=0;entryPerimeter=0;strokeColor=#FF0000;align=center;verticalAlign=middle;fontFamily=Helvetica;fontSize=11;fontColor=default;labelBackgroundColor=default;endArrow=none;endFill=0;" edge="1" parent="1" source="26" target="6">
                    <mxGeometry relative="1" as="geometry"/>
                </mxCell>
                <mxCell id="28" value="&lt;u&gt;Value Object&lt;/u&gt;&lt;div&gt;&lt;div style=&quot;text-align: left;&quot;&gt;・userLevel = &lt;br&gt;admin | user&amp;nbsp;&lt;/div&gt;&lt;/div&gt;" style="rounded=1;whiteSpace=wrap;html=1;fontFamily=Helvetica;fontSize=11;labelBackgroundColor=none;fillColor=#f8cecc;strokeColor=#b85450;verticalAlign=top;" vertex="1" parent="1">
                    <mxGeometry x="50" y="400" width="120" height="60" as="geometry"/>
                </mxCell>
                <mxCell id="29" value="" style="edgeStyle=none;shape=connector;rounded=1;html=1;exitX=0;exitY=0;exitDx=140;exitDy=21;exitPerimeter=0;strokeColor=#FF0000;align=center;verticalAlign=middle;fontFamily=Helvetica;fontSize=11;fontColor=default;labelBackgroundColor=default;endArrow=none;endFill=0;entryX=-0.013;entryY=0.923;entryDx=0;entryDy=0;entryPerimeter=0;" edge="1" parent="1" source="18" target="5">
                    <mxGeometry relative="1" as="geometry">
                        <mxPoint x="240" y="531" as="sourcePoint"/>
                        <mxPoint x="339" y="541" as="targetPoint"/>
                    </mxGeometry>
                </mxCell>
                <mxCell id="25" value="&lt;u&gt;Value Object&lt;/u&gt;&lt;div&gt;&lt;div style=&quot;text-align: left;&quot;&gt;&lt;span style=&quot;background-color: transparent;&quot;&gt;・&lt;/span&gt;&lt;span style=&quot;background-color: transparent;&quot;&gt;lmage&lt;/span&gt;&lt;/div&gt;&lt;/div&gt;" style="rounded=1;whiteSpace=wrap;html=1;fontFamily=Helvetica;fontSize=11;labelBackgroundColor=none;fillColor=#f8cecc;strokeColor=#b85450;verticalAlign=top;" vertex="1" parent="1">
                    <mxGeometry x="293" y="510" width="120" height="40" as="geometry"/>
                </mxCell>
                <mxCell id="31" value="&lt;u&gt;Value Object&lt;/u&gt;&lt;div&gt;&lt;div style=&quot;text-align: left;&quot;&gt;&lt;span style=&quot;background-color: transparent;&quot;&gt;・status :&amp;nbsp;&lt;/span&gt;&lt;span style=&quot;color: rgb(63, 63, 63); font-size: 12px; background-color: transparent;&quot;&gt;未着手 | 作業中 | 完了&lt;/span&gt;&lt;/div&gt;&lt;br style=&quot;color: rgb(63, 63, 63); font-size: 12px; text-align: left;&quot;&gt;&lt;/div&gt;" style="rounded=1;whiteSpace=wrap;html=1;fontFamily=Helvetica;fontSize=11;labelBackgroundColor=none;fillColor=#f8cecc;strokeColor=#b85450;verticalAlign=top;" vertex="1" parent="1">
                    <mxGeometry x="284" y="290" width="120" height="60" as="geometry"/>
                </mxCell>
            </root>
        </mxGraphModel>
    </diagram>
</mxfile>